{"title":"The Hangover II 2011 TS V3  XViD DTRG","uid":6492046,"size":1311826523,"categoryP":"video","categoryS":"movies","magnet":"?xt=urn:btih:a3d537386e9414fe2ee1c12d3f79e1935ed90752&amp;dn=The+Hangover+II+2011+TS+V3++XViD+DTRG&amp;tr=udp%3A%2F%2Ftracker.openbittorrent.com%3A80&amp;tr=udp%3A%2F%2Fopen.demonii.com%3A1337&amp;tr=udp%3A%2F%2Ftracker.coppersurfer.tk%3A6969&amp;tr=udp%3A%2F%2Fexodus.desync.com%3A6969","seeders":0,"leechers":1,"uploader":"SAFCukO09","files":3,"time":1308923188,"description":"Format : AVI\nFormat/Info : Audio Video Interleave\nFile size : 1.22 GiB\nDuration : 1h 38mn\nOverall bit rate : 1 767 Kbps\nWriting library : VirtualDub build 32842/release\n\nVideo\nID : 0\nFormat : MPEG-4 Visual\nFormat profile : Advanced Simple@L5\nFormat settings, BVOP : 2\nFormat settings, QPel : No\nFormat settings, GMC : No warppoints\nFormat settings, Matrix : Default (H.263)\nMuxing mode : Packed bitstream\nCodec ID : XVID\nCodec ID/Hint : XviD\nDuration : 1h 38mn\nBit rate : 1 630 Kbps\nWidth : 720 pixels\nHeight : 288 pixels\nDisplay aspect ratio : 2.500\nFrame rate : 23.976 fps\nColor space : YUV\nChroma subsampling : 4:2:0\nBit depth : 8 bits\nScan type : Progressive\nCompression mode : Lossy\nBits/(Pixel*Frame) : 0.328\nStream size : 1.13 GiB (92%)\nWriting library : XviD 64\n\nAudio\nID : 1\nFormat : MPEG Audio\nFormat version : Version 1\nFormat profile : Layer 3\nMode : Joint stereo\nMode extension : MS Stereo\nCodec ID : 55\nCodec ID/Hint : MP3\nDuration : 1h 38mn\nBit rate mode : Constant\nBit rate : 128 Kbps\nChannel(s) : 2 channels\nSampling rate : 44.1 KHz\nCompression mode : Lossy\nDelay relative to video : 4ms\nStream size : 90.6 MiB (7%)\nAlignment : Split accross interleaves\nInterleave, duration : 42 ms (1.00 video frame)\nInterleave, preload duration : 500 ms\nWriting library : LAME3.98.4\n\n\n\n\n &lt;a href=&quot;\nhttp://www.imdb.com/title/tt1411697/&quot; rel=&quot;nofollow&quot; target=&quot;_NEW&quot;&gt;\nhttp://www.imdb.com/title/tt1411697/&lt;/a&gt;\n\n\n\n\n\n\n\nStoryline\n\nStu is getting married. Along with Doug, Phil, and his soon-to-be brother-in-law Teddy, he regretfully invites Alan to Thailand for the wedding. After a quiet night on the beach with a beer and toasting marshmallows by the camp fire, Stu, Alan and Phil wake up in a seedy apartment in Bangkok. Doug is back at the resort, but Teddy is missing, there's a monkey with a severed finger, Alan's head is shaved, Stu has a tattoo on his face, and they can't remember any of it. The wolf-pack retrace their steps through strip clubs, tattoo parlors and cocaine-dealing monkeys on the streets of Bangkok as they try and find Teddy before the wedding.\n\n\n\n\n\n &lt;a href=&quot;\nhttp://www.leetleech.org/images/57420382961192417609.png&quot; rel=&quot;nofollow&quot; target=&quot;_NEW&quot;&gt;\nhttp://www.leetleech.org/images/57420382961192417609.png&lt;/a&gt;\n &lt;a href=&quot;\nhttp://www.leetleech.org/images/08437783513221930782.png&quot; rel=&quot;nofollow&quot; target=&quot;_NEW&quot;&gt;\nhttp://www.leetleech.org/images/08437783513221930782.png&lt;/a&gt;\n &lt;a href=&quot;\nhttp://www.leetleech.org/images/86921841150966467082.png&quot; rel=&quot;nofollow&quot; target=&quot;_NEW&quot;&gt;\nhttp://www.leetleech.org/images/86921841150966467082.png&lt;/a&gt;\n\n\n\n\n\n\n\n\n\nSource Used\n\nVIDEO: Bambi .....IMAGiNE....... Thanks\n\nAUDIO: .......IMAGiNE........... Thanks\n\n\nGreetz to IMAGiNE,Flawl3ss,DiLLoN,BDK,NOiR,TOXiC,THC,Ez,Rx,Boobyblue,TaRiQ786,LKRG,\n","torrent":{"xt":"urn:btih:a3d537386e9414fe2ee1c12d3f79e1935ed90752","amp;dn":"The+Hangover+II+2011+TS+V3++XViD+DTRG","amp;tr":["udp%3A%2F%2Ftracker.openbittorrent.com%3A80","udp%3A%2F%2Fopen.demonii.com%3A1337","udp%3A%2F%2Ftracker.coppersurfer.tk%3A6969","udp%3A%2F%2Fexodus.desync.com%3A6969"],"infoHash":"a3d537386e9414fe2ee1c12d3f79e1935ed90752","infoHashBuffer":{"type":"Buffer","data":[163,213,55,56,110,148,20,254,46,225,193,45,63,121,225,147,94,217,7,82]},"announce":[],"urlList":[]}}